<svg width="auto" height="auto" viewBox="0 0 1440 1024" fill="none" xmlns="http://www.w3.org/2000/svg">
<g id="LogoPort">
<g id="Backtagoverlay">
<path d="M1173.85 572.091L746.298 409L719.735 592.981L1062.33 714.865C1110.15 741.482 1101.21 764.409 1048.07 813.625L1135.96 763.021C1287.69 665.066 1224.44 594.92 1173.85 572.091Z" fill="#4E523A"/>
<path d="M1173.85 572.091L746.298 409L719.735 592.981L1062.33 714.865C1110.15 741.482 1101.21 764.409 1048.07 813.625L1135.96 763.021C1287.69 665.066 1224.44 594.92 1173.85 572.091Z" fill="url(#paint0_linear)"/>
</g>
<path id="Backtag" d="M1145.26 594.681L738.417 457L717.775 609.419L1043.57 712.444C1089.27 734.789 1081.39 753.751 1032.48 794.262L1114.11 752.798C1254.78 672.43 1193.49 613.9 1145.26 594.681Z" fill="#E34C26"/>
<g id="LetterJoverlay">
<path d="M903.862 89H558.064C554.922 92.3818 563.012 106.194 620.508 134.388C678.003 162.582 763.461 189.209 799.003 198.999C814.909 338.188 837.176 628.207 799.003 674.77C751.286 732.973 691.788 704.138 679.417 674.77C669.52 651.275 517.023 664.98 442.012 674.77C431.801 683.491 430.348 717.061 506.223 781.565C601.068 862.195 720.064 855.787 799.003 828.554C862.154 806.768 904.647 746.144 918 718.556L903.862 89Z" fill="#4E523A"/>
<path d="M903.862 89H558.064C554.922 92.3818 563.012 106.194 620.508 134.388C678.003 162.582 763.461 189.209 799.003 198.999C814.909 338.188 837.176 628.207 799.003 674.77C751.286 732.973 691.788 704.138 679.417 674.77C669.52 651.275 517.023 664.98 442.012 674.77C431.801 683.491 430.348 717.061 506.223 781.565C601.068 862.195 720.064 855.787 799.003 828.554C862.154 806.768 904.647 746.144 918 718.556L903.862 89Z" fill="url(#paint1_linear)"/>
</g>
<path id="LetterJ" d="M922.862 89H577.064C573.922 92.3417 582.012 105.99 639.508 133.849C697.003 161.708 782.461 188.019 818.003 197.693C833.909 335.229 856.176 621.805 818.003 667.815C770.286 725.327 710.788 696.835 698.417 667.815C688.52 644.599 536.023 658.141 461.012 667.815C450.801 676.433 449.348 709.603 525.223 773.342C620.068 853.014 739.064 846.683 818.003 819.773C881.154 798.246 923.647 738.342 937 711.081L922.862 89Z" fill="#4E523A"/>
<g id="Fronttagoverlay">
<path d="M353.721 822.915L813 938V759.579L446.278 675.776C393.672 654.896 399.407 632.125 446.278 580L364.228 636.77C224.143 744.904 298.855 805.922 353.721 822.915Z" fill="#4E523A"/>
<path d="M353.721 822.915L813 938V759.579L446.278 675.776C393.672 654.896 399.407 632.125 446.278 580L364.228 636.77C224.143 744.904 298.855 805.922 353.721 822.915Z" fill="url(#paint2_linear)"/>
</g>
<path id="Fronttag" d="M386.186 792.417L809 885V741.466L471.393 674.049C422.965 657.252 428.244 638.933 471.393 597L395.858 642.67C266.895 729.66 335.675 778.748 386.186 792.417Z" fill="#E34C26"/>
</g>
<defs>
<linearGradient id="paint0_linear" x1="1231.84" y1="644.741" x2="722.871" y2="571.259" gradientUnits="userSpaceOnUse">
<stop stop-color="#4E523A"/>
<stop offset="1" stop-color="white" stop-opacity="0"/>
</linearGradient>
<linearGradient id="paint1_linear" x1="677.5" y1="89" x2="677.5" y2="847" gradientUnits="userSpaceOnUse">
<stop stop-color="#4E523A"/>
<stop offset="1" stop-color="white" stop-opacity="0"/>
</linearGradient>
<linearGradient id="paint2_linear" x1="284" y1="759" x2="813" y2="759" gradientUnits="userSpaceOnUse">
<stop stop-color="#4E523A"/>
<stop offset="1" stop-color="white" stop-opacity="0"/>
</linearGradient>
</defs>
</svg>
