<svg width="770" height="583" viewBox="0 0 770 583" fill="none" xmlns="http://www.w3.org/2000/svg">
<g id="Vector 1" style="mix-blend-mode:darken" filter="url(#filter0_i)">
<path d="M181 23C150.6 28.6 93.6667 63.3333 69 80C-79.8 173.6 47.6667 262.333 130 295C175.667 327.333 249.8 398.4 181 424C112.2 449.6 105 496.667 110 517C144.333 552.667 267.4 612.4 485 566C702.6 519.6 765 380.667 769 317C770.667 281.333 734 184 574 80C374 -50 219 16 181 23Z" fill="#E34C26"/>
<path d="M181 23C150.6 28.6 93.6667 63.3333 69 80C-79.8 173.6 47.6667 262.333 130 295C175.667 327.333 249.8 398.4 181 424C112.2 449.6 105 496.667 110 517C144.333 552.667 267.4 612.4 485 566C702.6 519.6 765 380.667 769 317C770.667 281.333 734 184 574 80C374 -50 219 16 181 23Z" fill="url(#paint0_linear)"/>
</g>
<defs>
<filter id="filter0_i" x="0.384705" y="0.0706482" width="768.669" height="586.886" filterUnits="userSpaceOnUse" color-interpolation-filters="sRGB">
<feFlood flood-opacity="0" result="BackgroundImageFix"/>
<feBlend mode="normal" in="SourceGraphic" in2="BackgroundImageFix" result="shape"/>
<feColorMatrix in="SourceAlpha" type="matrix" values="0 0 0 0 0 0 0 0 0 0 0 0 0 0 0 0 0 0 127 0" result="hardAlpha"/>
<feOffset dy="4"/>
<feGaussianBlur stdDeviation="2"/>
<feComposite in2="hardAlpha" operator="arithmetic" k2="-1" k3="1"/>
<feColorMatrix type="matrix" values="0 0 0 0 0 0 0 0 0 0 0 0 0 0 0 0 0 0 0.25 0"/>
<feBlend mode="normal" in2="shape" result="effect1_innerShadow"/>
</filter>
<linearGradient id="paint0_linear" x1="384.719" y1="0.0706482" x2="384.719" y2="582.957" gradientUnits="userSpaceOnUse">
<stop stop-color="#FC3F0F"/>
<stop offset="1" stop-color="white" stop-opacity="0"/>
</linearGradient>
</defs>
</svg>
